<?xml version="1.0" encoding="UTF-8" standalone="no"?>
<svg
   version="1.1"
   viewBox="-10 0 587 1000"
   id="svg1"
   sodipodi:docname="1DF2F.svg"
   inkscape:version="1.4.3 (0d15f75, 2025-12-25)"
   xmlns:inkscape="http://www.inkscape.org/namespaces/inkscape"
   xmlns:sodipodi="http://sodipodi.sourceforge.net/DTD/sodipodi-0.dtd"
   xmlns="http://www.w3.org/2000/svg"
   xmlns:svg="http://www.w3.org/2000/svg">
  <defs
     id="defs1" />
  <sodipodi:namedview
     id="namedview1"
     pagecolor="#ffffff"
     bordercolor="#666666"
     borderopacity="1.0"
     inkscape:showpageshadow="2"
     inkscape:pageopacity="0.0"
     inkscape:pagecheckerboard="0"
     inkscape:deskcolor="#d1d1d1"
     inkscape:zoom="0.755"
     inkscape:cx="-5.9602649"
     inkscape:cy="631.12583"
     inkscape:window-width="1680"
     inkscape:window-height="998"
     inkscape:window-x="-8"
     inkscape:window-y="-8"
     inkscape:window-maximized="1"
     inkscape:current-layer="svg1"
     showguides="true">
    <sodipodi:guide
       position="382,202"
       orientation="1,0"
       id="guide1"
       inkscape:locked="false" />
  </sodipodi:namedview>
  <path
     fill="currentColor"
     d="M287 810c-144 0 -232 -84 -232 -259c0 -173 80 -257 235 -257c44 0 82 10 115 26c-14 -44 -50 -96 -101 -140l-125 71v-56l84 -48c-33 -22 -71 -41 -113 -54v-54c61 15 121 39 173 74l129 -75v57l-88 50c94 78 158 204 158 364c0 203 -81 301 -235 301zM289 758 c100 0 136 -71 136 -207s-37 -204 -137 -204s-136 68 -136 204s37 207 137 207z"
     id="path1" />
  <path
     d="m 324,997 c -47,0 -76,-19 -76,-55 0,-16 6,-28 15,-37 16,11 30,16 52,16 33,0 57,-17 57,-72 V 787.08609 L 428,725.82781 428,849 c 0,93 -29,148 -104,148 z"
     style="fill:#0a3365;fill-opacity:1"
     id="path1-8"
     sodipodi:nodetypes="sscssccss" />
</svg>
