<?xml version="1.0" standalone="no"?>
<!DOCTYPE svg PUBLIC "-//W3C//DTD SVG 1.1//EN" "http://www.w3.org/Graphics/SVG/1.1/DTD/svg11.dtd" >
<svg xmlns="http://www.w3.org/2000/svg" xmlns:xlink="http://www.w3.org/1999/xlink" version="1.1" viewBox="-10 0 1010 1000">
   <path fill="currentColor"
d="M245 722c-37 0 -72 -4 -107 -14v-40c128 0 241 -121 241 -277s-112 -277 -241 -277v-40c35 -10 70 -14 107 -14c161 0 310 141 310 331s-149 331 -310 331zM270 684c101 0 233 -139 233 -293s-132 -293 -233 -293c69 24 161 155 161 293s-92 269 -161 293zM862 724h-172
v196h-62v-196h-490v-56h103l-7 39l107 -39h287v-444h62v444h172v56z" />
</svg>
