<?xml version="1.0" standalone="no"?>
<!DOCTYPE svg PUBLIC "-//W3C//DTD SVG 1.1//EN" "http://www.w3.org/Graphics/SVG/1.1/DTD/svg11.dtd" >
<svg xmlns="http://www.w3.org/2000/svg" xmlns:xlink="http://www.w3.org/1999/xlink" version="1.1" viewBox="-10 0 907 1000">
   <path fill="currentColor"
d="M760 310c-19 0 -35 -16 -35 -35s16 -35 35 -35s35 16 35 35s-16 35 -35 35zM644 248c-19 0 -35 -16 -35 -35s16 -35 35 -35s35 16 35 35s-16 35 -35 35zM514 218c-19 0 -35 -16 -35 -35s16 -35 35 -35s35 16 35 35s-16 35 -35 35zM133 310c-19 0 -35 -16 -35 -35
s16 -35 35 -35s35 16 35 35s-16 35 -35 35zM249 248c-19 0 -35 -16 -35 -35s16 -35 35 -35s35 16 35 35s-16 35 -35 35zM379 218c-19 0 -35 -16 -35 -35s16 -35 35 -35s35 16 35 35s-16 35 -35 35zM850 344l22 25l-422 451l-423 -451l22 -25h801zM785 388h-670l335 355z" />
</svg>
