<?xml version="1.0" standalone="no"?>
<!DOCTYPE svg PUBLIC "-//W3C//DTD SVG 1.1//EN" "http://www.w3.org/Graphics/SVG/1.1/DTD/svg11.dtd" >
<svg xmlns="http://www.w3.org/2000/svg" xmlns:xlink="http://www.w3.org/1999/xlink" version="1.1" viewBox="-10 0 852 1000">
   <path fill="currentColor"
d="M421 500c-88 0 -155 68 -155 155c0 88 67 155 155 155c87 0 155 -67 155 -155c0 -87 -68 -155 -155 -155zM421 565c49 0 89 41 89 90s-40 89 -89 89s-90 -40 -90 -89s41 -90 90 -90zM637 212c-88 0 -155 68 -155 155s67 155 155 155s155 -68 155 -155s-67 -155 -155 -155
zM205 212c-87 0 -155 68 -155 155s68 155 155 155s155 -68 155 -155s-68 -155 -155 -155zM205 277c49 0 89 41 89 90s-40 89 -89 89s-90 -40 -90 -89s41 -90 90 -90zM637 277c49 0 89 41 89 90s-40 89 -89 89s-90 -40 -90 -89s41 -90 90 -90z" />
</svg>
