<?xml version="1.0" standalone="no"?>
<!DOCTYPE svg PUBLIC "-//W3C//DTD SVG 1.1//EN" "http://www.w3.org/Graphics/SVG/1.1/DTD/svg11.dtd" >
<svg xmlns="http://www.w3.org/2000/svg" xmlns:xlink="http://www.w3.org/1999/xlink" version="1.1" viewBox="-10 0 941 1000">
   <path fill="currentColor"
d="M681 761l-42 40c-32 -24 -62 -52 -89 -85c-84 -101 -120 -217 -107 -349c3 -33 9 -65 18 -95l55 5c-9 29 -14 59 -17 91c-12 118 21 223 96 314c26 31 55 58 86 79zM524 759l-43 38c-26 -19 -50 -42 -72 -69c-61 -76 -86 -161 -74 -257c4 -33 10 -60 19 -79l58 -8
c-12 27 -20 56 -23 88c-10 82 11 156 63 221c22 26 46 48 72 66zM35 800v-50l470 -534l50 51l-405 462h680v71h-795z" />
</svg>
