<?xml version="1.0" standalone="no"?>
<!DOCTYPE svg PUBLIC "-//W3C//DTD SVG 1.1//EN" "http://www.w3.org/Graphics/SVG/1.1/DTD/svg11.dtd" >
<svg xmlns="http://www.w3.org/2000/svg" xmlns:xlink="http://www.w3.org/1999/xlink" version="1.1" viewBox="-10 0 907 1000">
   <path fill="currentColor"
d="M790 435l-38 36c-103 -90 -205 -135 -304 -135c-100 0 -201 45 -305 135l-41 -39c21 -31 64 -63 128 -96c74 -37 146 -56 218 -56c71 0 143 19 217 56c65 33 106 66 125 99zM450 743l345 -368c-124 -90 -239 -135 -345 -135c-107 0 -222 45 -346 135zM450 820l-423 -451
c51 -53 110 -96 180 -129c78 -37 159 -56 243 -56c83 0 164 19 243 56c69 33 129 76 179 129z" />
</svg>
