<?xml version="1.0" standalone="no"?>
<!DOCTYPE svg PUBLIC "-//W3C//DTD SVG 1.1//EN" "http://www.w3.org/Graphics/SVG/1.1/DTD/svg11.dtd" >
<svg xmlns="http://www.w3.org/2000/svg" xmlns:xlink="http://www.w3.org/1999/xlink" version="1.1" viewBox="-10 0 1010 1000">
   <path fill="currentColor"
d="M154 869c-97 -97 -144 -211 -144 -347s47 -250 144 -346c96 -97 210 -144 346 -144s250 47 346 144c97 96 144 210 144 346s-47 250 -144 347c-96 96 -210 143 -346 143s-250 -47 -346 -143zM434 129v787c28 4 47 5 66 5s38 -1 66 -5v-786c-27 -5 -46 -7 -66 -7
s-38 2 -66 6z" />
</svg>
