<?xml version="1.0" standalone="no"?>
<!DOCTYPE svg PUBLIC "-//W3C//DTD SVG 1.1//EN" "http://www.w3.org/Graphics/SVG/1.1/DTD/svg11.dtd" >
<svg xmlns="http://www.w3.org/2000/svg" xmlns:xlink="http://www.w3.org/1999/xlink" version="1.1" viewBox="-10 0 610 1000">
   <path fill="currentColor"
d="M98 898v-822h31c117 0 211 38 288 117c76 79 114 175 114 293c0 121 -39 219 -118 298c-80 78 -175 117 -289 117zM435 625c16 -39 23 -84 23 -131c0 -51 -8 -98 -24 -139c-16 -40 -37 -76 -65 -106c-26 -28 -59 -53 -95 -69s-68 -26 -106 -27v672c39 -1 73 -11 108 -28
c36 -16 69 -41 95 -69c28 -29 49 -64 64 -103z" />
</svg>
