<?xml version="1.0" standalone="no"?>
<!DOCTYPE svg PUBLIC "-//W3C//DTD SVG 1.1//EN" "http://www.w3.org/Graphics/SVG/1.1/DTD/svg11.dtd" >
<svg xmlns="http://www.w3.org/2000/svg" xmlns:xlink="http://www.w3.org/1999/xlink" version="1.1" viewBox="-10 0 1010 1000">
   <path fill="currentColor"
d="M366 656c35 37 84 56 134 56s99 -19 134 -56c35 -35 56 -82 56 -134c0 -51 -21 -98 -56 -134s-84 -55 -134 -55s-99 19 -134 55s-56 83 -56 134c0 52 21 99 56 134zM320 342c52 -51 109 -75 180 -75s128 24 180 75c51 52 75 109 75 180s-24 128 -75 180
c-52 52 -109 75 -180 75s-128 -23 -180 -75c-51 -52 -75 -109 -75 -180s24 -128 75 -180zM209 813c79 80 179 121 291 121s212 -41 291 -121c79 -79 121 -178 121 -291c0 -112 -41 -212 -121 -291c-79 -80 -179 -121 -291 -121s-212 41 -291 121c-80 79 -121 179 -121 291
c0 113 42 212 121 291zM163 185c94 -95 204 -140 337 -140s243 45 337 140c95 94 140 204 140 337s-45 243 -140 338c-94 94 -204 139 -337 139s-243 -45 -337 -139c-95 -95 -140 -205 -140 -338s45 -243 140 -337zM49 477v-54h902v54h-902zM49 621v-54h902v54h-902z" />
</svg>
