<?xml version="1.0" standalone="no"?>
<!DOCTYPE svg PUBLIC "-//W3C//DTD SVG 1.1//EN" "http://www.w3.org/Graphics/SVG/1.1/DTD/svg11.dtd" >
<svg xmlns="http://www.w3.org/2000/svg" xmlns:xlink="http://www.w3.org/1999/xlink" version="1.1" viewBox="-10 0 1074 1000">
   <path fill="currentColor"
d="M91 490c0 121 44 227 130 314c87 86 193 130 314 130s227 -44 314 -130c86 -87 130 -193 130 -314s-44 -227 -130 -314c-87 -86 -193 -130 -314 -130s-227 44 -314 130c-86 87 -130 193 -130 314zM535 991c-138 0 -255 -49 -355 -146c-97 -100 -146 -217 -146 -355
s49 -255 146 -355c100 -97 217 -146 355 -146s255 49 355 146c97 100 146 217 146 355s-49 255 -146 355c-100 97 -217 146 -355 146zM454 571c-24 -23 -35 -49 -35 -81s11 -58 35 -82c23 -23 49 -34 81 -34s58 11 82 34c23 24 34 50 34 82s-11 58 -34 81
c-24 24 -50 35 -82 35s-58 -11 -81 -35zM333 288c-56 55 -83 124 -83 202s27 147 83 202c55 56 124 83 202 83s147 -27 202 -83c55 -55 84 -124 84 -202s-29 -147 -84 -202s-124 -84 -202 -84s-147 29 -202 84zM292 733c-69 -68 -101 -147 -101 -243s32 -175 101 -243
c68 -69 147 -101 243 -101s175 32 243 101c69 68 101 147 101 243s-32 175 -101 243c-68 69 -147 101 -243 101s-175 -32 -243 -101z" />
</svg>
